<svg width="20" height="21" viewBox="0 0 20 21" fill="none" xmlns="http://www.w3.org/2000/svg">
<path fill-rule="evenodd" clip-rule="evenodd" d="M9.99996 2.16675C9.60289 2.16675 9.21073 2.25441 8.85145 2.42348L3.58064 4.90387C2.41233 5.45366 1.66663 6.62872 1.66663 7.91993V13.8334C1.66663 14.6649 2.14682 15.4216 2.89914 15.7756L8.85145 18.5767C9.21073 18.7458 9.60289 18.8334 9.99996 18.8334C10.397 18.8334 10.7892 18.7458 11.1485 18.5767L17.1008 15.7756C17.8531 15.4216 18.3333 14.6649 18.3333 13.8334V7.91993C18.3333 6.62872 17.5876 5.45366 16.4193 4.90387L11.1485 2.42348C10.7892 2.25441 10.397 2.16675 9.99996 2.16675ZM16.6666 12.4851L10.8333 9.56839V4.11715L15.7096 6.4119C16.2938 6.68679 16.6666 7.27433 16.6666 7.91993V12.4851ZM9.99996 11.0151L16.4452 14.2377C16.428 14.2487 16.4099 14.2587 16.3911 14.2676L10.4388 17.0687C10.3015 17.1333 10.1517 17.1667 9.99996 17.1667C9.84824 17.1667 9.69839 17.1333 9.56112 17.0687L3.60881 14.2676C3.58999 14.2587 3.57194 14.2487 3.55472 14.2377L9.99996 11.0151ZM9.16663 9.56839L3.33329 12.4851V7.91993C3.33329 7.27433 3.70614 6.68679 4.2903 6.4119L9.16663 4.11715V9.56839Z" fill="black"/>
</svg>
