<svg width="16" height="19" viewBox="0 0 16 19" fill="none" xmlns="http://www.w3.org/2000/svg">
<path d="M4.66667 4.99992C4.20643 4.99992 3.83333 5.37301 3.83333 5.83325C3.83333 6.29349 4.20643 6.66658 4.66667 6.66658H11.3333C11.7936 6.66658 12.1667 6.29349 12.1667 5.83325C12.1667 5.37301 11.7936 4.99992 11.3333 4.99992H4.66667Z" fill="#667185"/>
<path d="M3.83333 9.99992C3.83333 9.53968 4.20643 9.16658 4.66667 9.16658H11.3333C11.7936 9.16658 12.1667 9.53968 12.1667 9.99992C12.1667 10.4602 11.7936 10.8333 11.3333 10.8333H4.66667C4.20643 10.8333 3.83333 10.4602 3.83333 9.99992Z" fill="#667185"/>
<path d="M4.66667 13.3333C4.20643 13.3333 3.83333 13.7063 3.83333 14.1666C3.83333 14.6268 4.20643 14.9999 4.66667 14.9999H6.88889C7.34913 14.9999 7.72222 14.6268 7.72222 14.1666C7.72222 13.7063 7.34913 13.3333 6.88889 13.3333H4.66667Z" fill="#667185"/>
<path d="M9.11111 13.3333C8.65087 13.3333 8.27778 13.7063 8.27778 14.1666C8.27778 14.6268 8.65087 14.9999 9.11111 14.9999H11.3333C11.7936 14.9999 12.1667 14.6268 12.1667 14.1666C12.1667 13.7063 11.7936 13.3333 11.3333 13.3333H9.11111Z" fill="#667185"/>
<path fill-rule="evenodd" clip-rule="evenodd" d="M10.9015 18.2509C10.9952 18.2744 11.0861 18.308 11.1724 18.3512C13.1607 19.3453 15.5 17.8995 15.5 15.6766V4.16658C15.5 2.32564 14.0076 0.833252 12.1667 0.833252H3.83333C1.99238 0.833252 0.5 2.32564 0.5 4.16658V15.6766C0.5 17.8995 2.83933 19.3453 4.82757 18.3512C4.91395 18.308 5.00479 18.2744 5.09848 18.2509L7.59577 17.6266C7.86117 17.5603 8.13883 17.5603 8.40423 17.6266L10.9015 18.2509ZM2.16667 4.16658C2.16667 3.24611 2.91286 2.49992 3.83333 2.49992H12.1667C13.0871 2.49992 13.8333 3.24611 13.8333 4.16658V15.6766C13.8333 16.6605 12.7979 17.3005 11.9178 16.8604C11.7226 16.7629 11.5174 16.687 11.3057 16.634L8.80845 16.0097C8.27765 15.877 7.72235 15.877 7.19155 16.0097L4.69426 16.634C4.48259 16.687 4.27736 16.7629 4.08221 16.8604C3.20214 17.3005 2.16667 16.6605 2.16667 15.6766V4.16658Z" fill="#667185"/>
</svg>
