<svg width="20" height="15" viewBox="0 0 20 15" fill="none" xmlns="http://www.w3.org/2000/svg">
<path fill-rule="evenodd" clip-rule="evenodd" d="M9.99998 0.166748C8.15903 0.166748 6.66665 1.65913 6.66665 3.50008C6.66665 5.34103 8.15903 6.83342 9.99998 6.83342C11.8409 6.83342 13.3333 5.34103 13.3333 3.50008C13.3333 1.65913 11.8409 0.166748 9.99998 0.166748ZM8.33331 3.50008C8.33331 2.57961 9.07951 1.83341 9.99998 1.83341C10.9205 1.83341 11.6666 2.57961 11.6666 3.50008C11.6666 4.42056 10.9205 5.16675 9.99998 5.16675C9.07951 5.16675 8.33331 4.42056 8.33331 3.50008Z" fill="#667185"/>
<path fill-rule="evenodd" clip-rule="evenodd" d="M9.99998 14.3334C9.05258 14.3334 7.68654 14.1095 6.64985 13.6331C6.14131 13.3994 5.59567 13.0528 5.27381 12.5342C5.1039 12.2604 4.99655 11.9377 5.00006 11.5785C5.00354 11.2227 5.11511 10.8853 5.2978 10.5762C6.1332 9.16236 7.86627 7.66675 9.99998 7.66675C12.1337 7.66675 13.8668 9.16236 14.7022 10.5762C14.8848 10.8853 14.9964 11.2227 14.9999 11.5785C15.0034 11.9377 14.8961 12.2604 14.7262 12.5342C14.4043 13.0528 13.8586 13.3994 13.3501 13.6331C12.3134 14.1095 10.9474 14.3334 9.99998 14.3334ZM6.7327 11.424C6.66887 11.532 6.66674 11.5857 6.66665 11.5948C6.66658 11.6008 6.66637 11.6174 6.68991 11.6553C6.75608 11.7619 6.94823 11.936 7.3458 12.1187C8.12131 12.4751 9.24068 12.6667 9.99998 12.6667C10.7593 12.6667 11.8786 12.4751 12.6542 12.1187C13.0517 11.936 13.2439 11.7619 13.31 11.6553C13.3336 11.6174 13.3334 11.6012 13.3333 11.5952C13.3332 11.5861 13.3311 11.532 13.2673 11.424C12.6196 10.3279 11.3529 9.33342 9.99998 9.33342C8.64705 9.33342 7.38037 10.3279 6.7327 11.424Z" fill="#667185"/>
<path fill-rule="evenodd" clip-rule="evenodd" d="M2.08331 6.00008C2.08331 4.61937 3.2026 3.50008 4.58331 3.50008C5.96403 3.50008 7.08331 4.61937 7.08331 6.00008C7.08331 7.38079 5.96403 8.50008 4.58331 8.50008C3.2026 8.50008 2.08331 7.38079 2.08331 6.00008ZM4.58331 5.16675C4.12308 5.16675 3.74998 5.53984 3.74998 6.00008C3.74998 6.46032 4.12308 6.83342 4.58331 6.83342C5.04355 6.83342 5.41665 6.46032 5.41665 6.00008C5.41665 5.53984 5.04355 5.16675 4.58331 5.16675Z" fill="#667185"/>
<path d="M2.41309 12.2039C2.20847 12.6162 1.7084 12.7845 1.29615 12.5799C0.883904 12.3752 0.715585 11.8752 0.920204 11.4629C1.22636 10.8461 1.68975 10.2268 2.27269 9.75294C2.85585 9.27889 3.60312 8.91675 4.45596 8.91675C4.91619 8.91675 5.28929 9.28985 5.28929 9.75008C5.28929 10.2103 4.91619 10.5834 4.45596 10.5834C4.08847 10.5834 3.70063 10.74 3.32398 11.0462C2.94711 11.3526 2.62601 11.7749 2.41309 12.2039Z" fill="#667185"/>
<path fill-rule="evenodd" clip-rule="evenodd" d="M13.175 6.00008C13.175 4.61937 14.2943 3.50008 15.675 3.50008C17.0557 3.50008 18.175 4.61937 18.175 6.00008C18.175 7.38079 17.0557 8.50008 15.675 8.50008C14.2943 8.50008 13.175 7.38079 13.175 6.00008ZM15.675 5.16675C15.2148 5.16675 14.8417 5.53984 14.8417 6.00008C14.8417 6.46032 15.2148 6.83342 15.675 6.83342C16.1353 6.83342 16.5084 6.46032 16.5084 6.00008C16.5084 5.53984 16.1353 5.16675 15.675 5.16675Z" fill="#667185"/>
<path d="M19.0834 11.4629C19.288 11.8752 19.1197 12.3752 18.7075 12.5799C18.2952 12.7845 17.7952 12.6162 17.5905 12.2039C17.3776 11.7749 17.0565 11.3526 16.6796 11.0462C16.303 10.74 15.9152 10.5834 15.5477 10.5834C15.0874 10.5834 14.7143 10.2103 14.7143 9.75008C14.7143 9.28985 15.0874 8.91675 15.5477 8.91675C16.4005 8.91675 17.1478 9.27889 17.7309 9.75294C18.3139 10.2268 18.7773 10.8461 19.0834 11.4629Z" fill="#667185"/>
</svg>
