<svg width="19" height="14" viewBox="0 0 19 14" fill="none" xmlns="http://www.w3.org/2000/svg">
<path d="M5.00004 5.33325C5.00004 4.87301 5.37314 4.49992 5.83337 4.49992H10C10.4603 4.49992 10.8334 4.87301 10.8334 5.33325C10.8334 5.79349 10.4603 6.16659 10 6.16659H5.83337C5.37314 6.16659 5.00004 5.79349 5.00004 5.33325Z" fill="#EB5017"/>
<path d="M5.83337 7.83325C5.37314 7.83325 5.00004 8.20635 5.00004 8.66659C5.00004 9.12682 5.37314 9.49992 5.83337 9.49992H13.3334C13.7936 9.49992 14.1667 9.12682 14.1667 8.66659C14.1667 8.20635 13.7936 7.83325 13.3334 7.83325H5.83337Z" fill="#EB5017"/>
<path fill-rule="evenodd" clip-rule="evenodd" d="M0.833374 10.3333C0.833374 12.1742 2.32576 13.6666 4.16671 13.6666H14.1667C16.0077 13.6666 17.5 12.1742 17.5 10.3333V4.74716C17.5 4.45712 17.5757 4.17209 17.7196 3.92026L18.3445 2.82682C18.9794 1.71572 18.1771 0.333252 16.8974 0.333252H4.16671C2.32576 0.333252 0.833374 1.82564 0.833374 3.66659V10.3333ZM4.16671 11.9999C3.24623 11.9999 2.50004 11.2537 2.50004 10.3333V3.66659C2.50004 2.74611 3.24623 1.99992 4.16671 1.99992H16.8974L16.2726 3.09337C15.9848 3.59703 15.8334 4.16707 15.8334 4.74716V10.3333C15.8334 11.2537 15.0872 11.9999 14.1667 11.9999H4.16671Z" fill="#EB5017"/>
</svg>
