<svg width="19" height="14" viewBox="0 0 19 14" fill="none" xmlns="http://www.w3.org/2000/svg">
<path d="M5.00001 5.33325C5.00001 4.87301 5.37311 4.49992 5.83334 4.49992H10C10.4602 4.49992 10.8333 4.87301 10.8333 5.33325C10.8333 5.79349 10.4602 6.16659 10 6.16659H5.83334C5.37311 6.16659 5.00001 5.79349 5.00001 5.33325Z" fill="#667185"/>
<path d="M5.83334 7.83325C5.37311 7.83325 5.00001 8.20635 5.00001 8.66659C5.00001 9.12682 5.37311 9.49992 5.83334 9.49992H13.3333C13.7936 9.49992 14.1667 9.12682 14.1667 8.66659C14.1667 8.20635 13.7936 7.83325 13.3333 7.83325H5.83334Z" fill="#667185"/>
<path fill-rule="evenodd" clip-rule="evenodd" d="M0.833344 10.3333C0.833344 12.1742 2.32573 13.6666 4.16668 13.6666H14.1667C16.0076 13.6666 17.5 12.1742 17.5 10.3333V4.74716C17.5 4.45712 17.5757 4.17209 17.7196 3.92026L18.3444 2.82682C18.9793 1.71572 18.1771 0.333252 16.8974 0.333252H4.16668C2.32573 0.333252 0.833344 1.82564 0.833344 3.66659V10.3333ZM4.16668 11.9999C3.2462 11.9999 2.50001 11.2537 2.50001 10.3333V3.66659C2.50001 2.74611 3.2462 1.99992 4.16668 1.99992H16.8974L16.2725 3.09337C15.9847 3.59703 15.8333 4.16707 15.8333 4.74716V10.3333C15.8333 11.2537 15.0872 11.9999 14.1667 11.9999H4.16668Z" fill="#667185"/>
</svg>
