<svg width="20" height="20" viewBox="0 0 20 20" fill="none" xmlns="http://www.w3.org/2000/svg">
<path fill-rule="evenodd" clip-rule="evenodd" d="M11.912 1.98757C10.7643 1.18416 9.23666 1.18416 8.08893 1.98757L2.35761 5.99949C1.3921 6.67535 0.855245 7.81083 0.945636 8.98592L1.53315 16.6236C1.64396 18.0641 2.94913 19.1111 4.37934 18.9068L7.02069 18.5294C8.25231 18.3535 9.16713 17.2987 9.16713 16.0545V15C9.16713 14.5398 9.54023 14.1667 10.0005 14.1667C10.4607 14.1667 10.8338 14.5398 10.8338 15V16.0545C10.8338 17.2987 11.7486 18.3535 12.9802 18.5294L15.6216 18.9068C17.0518 19.1111 18.357 18.0641 18.4678 16.6236L19.0553 8.98592C19.1457 7.81083 18.6088 6.67535 17.6433 5.99949L11.912 1.98757ZM9.0447 3.35296C9.61856 2.95125 10.3824 2.95125 10.9562 3.35296L16.6876 7.36488C17.1703 7.70281 17.4387 8.27055 17.3935 8.85809L16.806 16.4958C16.7691 16.976 16.334 17.3249 15.8573 17.2568L13.2159 16.8795C12.8054 16.8209 12.5005 16.4693 12.5005 16.0545V15C12.5005 13.6193 11.3812 12.5 10.0005 12.5C8.61976 12.5 7.50047 13.6193 7.50047 15V16.0545C7.50047 16.4693 7.19553 16.8209 6.78499 16.8795L4.14364 17.2568C3.6669 17.3249 3.23184 16.976 3.19491 16.4958L2.60739 8.85809C2.5622 8.27055 2.83062 7.70281 3.31338 7.36488L9.0447 3.35296Z" fill="#667185"/>
</svg>
