<svg width="20" height="20" viewBox="0 0 20 20" fill="none" xmlns="http://www.w3.org/2000/svg">
<path fill-rule="evenodd" clip-rule="evenodd" d="M11.9121 1.98757C10.7644 1.18416 9.23678 1.18416 8.08905 1.98757L2.35773 5.99949C1.39222 6.67535 0.855367 7.81083 0.945758 8.98592L1.53327 16.6236C1.64408 18.0641 2.94925 19.1111 4.37946 18.9068L7.02081 18.5294C8.25243 18.3535 9.16726 17.2987 9.16726 16.0545V15C9.16726 14.5398 9.54035 14.1667 10.0006 14.1667C10.4608 14.1667 10.8339 14.5398 10.8339 15V16.0545C10.8339 17.2987 11.7487 18.3535 12.9804 18.5294L15.6217 18.9068C17.0519 19.1111 18.3571 18.0641 18.4679 16.6236L19.0554 8.98592C19.1458 7.81083 18.609 6.67535 17.6434 5.99949L11.9121 1.98757ZM9.04482 3.35296C9.61868 2.95125 10.3825 2.95125 10.9564 3.35296L16.6877 7.36488C17.1704 7.70281 17.4389 8.27055 17.3937 8.85809L16.8061 16.4958C16.7692 16.976 16.3342 17.3249 15.8574 17.2568L13.2161 16.8795C12.8055 16.8209 12.5006 16.4693 12.5006 16.0545V15C12.5006 13.6193 11.3813 12.5 10.0006 12.5C8.61988 12.5 7.50059 13.6193 7.50059 15V16.0545C7.50059 16.4693 7.19565 16.8209 6.78511 16.8795L4.14376 17.2568C3.66703 17.3249 3.23197 16.976 3.19503 16.4958L2.60752 8.85809C2.56232 8.27055 2.83075 7.70281 3.3135 7.36488L9.04482 3.35296Z" fill="#EB5017"/>
</svg>
