<svg width="18" height="17" viewBox="0 0 18 17" fill="none" xmlns="http://www.w3.org/2000/svg">
<path fill-rule="evenodd" clip-rule="evenodd" d="M8.99999 0.5C4.39762 0.5 0.666657 4.23096 0.666657 8.83333V11.3201C0.666493 11.3296 0.666494 11.3391 0.666657 11.3486V13.3431C0.666657 14.5343 1.63232 15.5 2.82352 15.5C4.01472 15.5 4.98038 14.5343 4.98038 13.3431V11.5422C4.98038 9.92409 3.55134 9.1746 2.33332 9.42315V8.83333C2.33332 5.15144 5.31809 2.16667 8.99999 2.16667C12.6819 2.16667 15.6667 5.15144 15.6667 8.83333V9.41433C14.449 9.16546 13.0196 9.91264 13.0196 11.5324V13.3431C13.0196 13.7402 13.1269 14.1122 13.314 14.4317C12.5764 14.7984 11.5699 15.0834 10.25 15.0834C9.78975 15.0834 9.41666 15.4565 9.41666 15.9167C9.41666 16.3769 9.78975 16.75 10.25 16.75C12.2866 16.75 13.7962 16.1755 14.8303 15.4724C14.943 15.4906 15.0586 15.5 15.1765 15.5C16.3677 15.5 17.3333 14.5343 17.3333 13.3431V11.3482C17.3335 11.339 17.3335 11.3298 17.3333 11.3206V8.83333C17.3333 4.23096 13.6024 0.5 8.99999 0.5ZM15.0433 13.815C15.0856 13.827 15.1303 13.8333 15.1765 13.8333C15.4472 13.8333 15.6667 13.6139 15.6667 13.3431V11.4069C15.6324 11.2496 15.5616 11.1698 15.4969 11.1234C15.4126 11.063 15.2882 11.0255 15.1466 11.0361C15.005 11.0468 14.8876 11.1025 14.8134 11.1748C14.7505 11.2361 14.6863 11.3386 14.6863 11.5324V13.3431C14.6863 13.5258 14.7862 13.6852 14.9344 13.7695C14.9716 13.782 15.008 13.7972 15.0433 13.815ZM2.33332 13.3431V11.4106C2.3688 11.2559 2.43954 11.1771 2.50434 11.1311C2.58897 11.0711 2.71334 11.0342 2.85449 11.0453C2.99564 11.0565 3.11269 11.1124 3.18685 11.185C3.24985 11.2466 3.31372 11.3493 3.31372 11.5422V13.3431C3.31372 13.6139 3.09425 13.8333 2.82352 13.8333C2.55279 13.8333 2.33332 13.6139 2.33332 13.3431Z" fill="#667185"/>
</svg>
