<svg width="20" height="16" viewBox="0 0 20 16" fill="none" xmlns="http://www.w3.org/2000/svg">
<path d="M4.24255 3.34721C3.78406 3.30709 3.37987 3.64625 3.33975 4.10474C3.29964 4.56322 3.6388 4.96742 4.09729 5.00753L5.75761 5.15279C6.2161 5.1929 6.62029 4.85374 6.6604 4.39526C6.70052 3.93677 6.36136 3.53258 5.90287 3.49246L4.24255 3.34721Z" fill="#F56630"/>
<path d="M13.3398 4.93807C13.3799 4.47958 13.7841 4.14043 14.2425 4.18054L15.9029 4.3258C16.3614 4.36591 16.7005 4.7701 16.6604 5.22859C16.6203 5.68708 16.2161 6.02623 15.7576 5.98612L14.0973 5.84086C13.6388 5.80075 13.2996 5.39656 13.3398 4.93807Z" fill="#F56630"/>
<path d="M4.24255 10.5032C3.78406 10.4631 3.37987 10.8022 3.33975 11.2607C3.29964 11.7192 3.6388 12.1234 4.09729 12.1635L5.75761 12.3088C6.2161 12.3489 6.62029 12.0097 6.6604 11.5512C6.70052 11.0927 6.36136 10.6885 5.90287 10.6484L4.24255 10.5032Z" fill="#F56630"/>
<path d="M13.3398 12.4381C13.3799 11.9796 13.7841 11.6404 14.2425 11.6805L15.9029 11.8258C16.3614 11.8659 16.7005 12.2701 16.6604 12.7286C16.6203 13.1871 16.2161 13.5262 15.7576 13.4861L14.0973 13.3409C13.6388 13.3008 13.2996 12.8966 13.3398 12.4381Z" fill="#F56630"/>
<path fill-rule="evenodd" clip-rule="evenodd" d="M9.99999 5.5C11.3807 5.5 12.5 6.61929 12.5 8C12.5 9.38071 11.3807 10.5 9.99999 10.5C8.61928 10.5 7.49999 9.38071 7.49999 8C7.49999 6.61929 8.61928 5.5 9.99999 5.5ZM10.8333 8C10.8333 7.53976 10.4602 7.16667 9.99999 7.16667C9.53976 7.16667 9.16666 7.53976 9.16666 8C9.16666 8.46024 9.53976 8.83333 9.99999 8.83333C10.4602 8.83333 10.8333 8.46024 10.8333 8Z" fill="#F56630"/>
<path fill-rule="evenodd" clip-rule="evenodd" d="M4.37027 0.701328C2.44258 0.535868 0.833328 2.06324 0.833328 3.97385V10.633C0.833328 12.404 2.21247 13.8588 3.95686 14.0055C4.67188 14.0657 5.54899 14.1444 6.58535 14.246C6.77113 14.2642 7.18419 14.3485 7.7814 14.4866C8.17404 14.5774 8.61603 14.6841 9.08037 14.7962C9.29926 14.849 9.52384 14.9032 9.74983 14.9574C10.4492 15.1249 11.1643 15.2922 11.7797 15.4181C12.369 15.5387 12.9464 15.6389 13.3298 15.6406C14.2829 15.6446 15.2149 15.6266 16.0126 15.6023C17.7969 15.5478 19.1667 14.0737 19.1667 12.3176V5.66067C19.1667 3.73366 17.547 2.2274 15.653 2.27859C14.9425 2.29779 14.1459 2.31066 13.3369 2.30724C13.1445 2.30643 12.726 2.24389 12.1138 2.11864C11.5279 1.99873 10.8362 1.83711 10.1381 1.66989C9.91942 1.61751 9.6996 1.56445 9.4827 1.5121L9.48187 1.51189C9.01291 1.3987 8.55745 1.28876 8.15691 1.19613C7.59009 1.06505 7.06324 0.951551 6.74797 0.920642C5.8322 0.83086 5.03899 0.758726 4.37027 0.701328ZM2.49999 3.97385C2.49999 3.0157 3.29718 2.28202 4.22774 2.36189C4.8898 2.41872 5.67631 2.49023 6.58535 2.57936C6.77113 2.59757 7.18419 2.68184 7.7814 2.81994C8.17411 2.91076 8.61618 3.01747 9.0806 3.12958C9.29965 3.18245 9.52367 3.23653 9.74983 3.2907C10.4492 3.45824 11.1643 3.62554 11.7797 3.75147C12.369 3.87204 12.9464 3.97227 13.3298 3.97389C14.1603 3.97741 14.9747 3.96419 15.698 3.94464C16.6867 3.91792 17.5 4.70392 17.5 5.66067V12.3176C17.5 13.2022 16.8169 13.9103 15.9618 13.9364C15.1776 13.9603 14.2656 13.9778 13.3369 13.9739C13.1445 13.9731 12.726 13.9106 12.1138 13.7853C11.5279 13.6654 10.8362 13.5038 10.1381 13.3366C9.91919 13.2841 9.69914 13.231 9.48203 13.1786C9.01299 13.0654 8.55752 12.9554 8.15691 12.8628C7.59009 12.7317 7.06324 12.6182 6.74797 12.5873C5.70393 12.485 4.81919 12.4055 4.0966 12.3447C3.19505 12.2689 2.49999 11.5174 2.49999 10.633V3.97385Z" fill="#F56630"/>
</svg>
