<svg width="14" height="18" viewBox="0 0 14 18" fill="none" xmlns="http://www.w3.org/2000/svg">
<path fill-rule="evenodd" clip-rule="evenodd" d="M7.83359 1.50008C7.83359 1.03984 7.46049 0.666748 7.00025 0.666748C6.54001 0.666748 6.16692 1.03984 6.16692 1.50008V1.9758C3.34015 2.38002 1.16692 4.81028 1.16692 7.74917L1.16692 11.0828C1.16692 11.0828 1.16693 11.0827 1.16692 11.0828C1.16684 11.0844 1.16627 11.0956 1.16266 11.1175C1.15832 11.1437 1.15062 11.1794 1.1379 11.2253C1.11213 11.3184 1.07111 11.4343 1.01381 11.5713C0.898925 11.846 0.736956 12.1623 0.557827 12.4814C0.221039 13.0813 0.051276 13.7963 0.178725 14.4761C0.313128 15.1931 0.77462 15.8183 1.5628 16.1184C2.26689 16.3865 3.20411 16.6317 4.4418 16.7776C4.47125 16.8031 4.50608 16.8323 4.54608 16.8643C4.67132 16.9645 4.85025 17.0944 5.07639 17.2236C5.52519 17.4801 6.18877 17.7501 7.00025 17.7501C7.81173 17.7501 8.47531 17.4801 8.92412 17.2236C9.15025 17.0944 9.32918 16.9645 9.45442 16.8643C9.49443 16.8323 9.52925 16.8031 9.5587 16.7776C10.7964 16.6317 11.7336 16.3865 12.4377 16.1184C13.2259 15.8183 13.6874 15.1931 13.8218 14.4761C13.9492 13.7963 13.7795 13.0813 13.4427 12.4814C13.2635 12.1623 13.1016 11.846 12.9867 11.5713C12.9294 11.4343 12.8884 11.3184 12.8626 11.2253C12.8499 11.1794 12.8422 11.1437 12.8378 11.1175C12.8342 11.0956 12.8337 11.0846 12.8336 11.083C12.8336 11.0829 12.8336 11.083 12.8336 11.083L12.8336 11.076V7.74957C12.8336 4.81075 10.6604 2.38009 7.83359 1.97581V1.50008ZM2.83359 7.74917C2.83359 5.44818 4.69887 3.58341 7.00025 3.58341C9.30155 3.58341 11.1669 5.44849 11.1669 7.74957V11.0834C11.1669 11.4692 11.3115 11.8853 11.4491 12.2143C11.5986 12.5718 11.7945 12.9501 11.9893 13.2972C12.1788 13.6348 12.224 13.9537 12.1836 14.169C12.1502 14.3472 12.0612 14.4784 11.8446 14.5609C10.9489 14.9019 9.43686 15.2501 7.00025 15.2501C4.56365 15.2501 3.05159 14.9019 2.15587 14.5609C1.93932 14.4784 1.85026 14.3472 1.81686 14.169C1.7765 13.9537 1.82168 13.6348 2.01116 13.2972C2.20603 12.9501 2.40194 12.5718 2.55143 12.2143C2.68904 11.8853 2.83359 11.4692 2.83359 11.0834V7.74917Z" fill="#F56630"/>
</svg>
