<svg width="20" height="19" viewBox="0 0 20 19" fill="none" xmlns="http://www.w3.org/2000/svg">
<path fill-rule="evenodd" clip-rule="evenodd" d="M11.4152 0.753959L10.4167 1.6617L9.41816 0.753959C7.85611 -0.666089 5.67249 0.609584 5.60899 2.33337H3.33334C1.95263 2.33337 0.833344 3.45266 0.833344 4.83337V6.40744C0.833344 7.07755 1.208 7.66015 1.75927 7.9572V14.8334C1.75927 16.6743 3.25165 18.1667 5.0926 18.1667H14.9074C16.7484 18.1667 18.2407 16.6743 18.2407 14.8334V7.9572C18.792 7.66015 19.1667 7.07755 19.1667 6.40744V4.83337C19.1667 3.45266 18.0474 2.33337 16.6667 2.33337H15.2244C15.1609 0.609584 12.9772 -0.666089 11.4152 0.753959ZM6.68195 4.00004C6.67229 4.0002 6.66263 4.0002 6.65298 4.00004H3.33334C2.87311 4.00004 2.50001 4.37313 2.50001 4.83337V6.40744C2.50001 6.45858 2.54147 6.50004 2.5926 6.50004H17.4074C17.4586 6.50004 17.5 6.45858 17.5 6.40744V4.83337C17.5 4.37313 17.1269 4.00004 16.6667 4.00004H14.1804C14.1707 4.0002 14.1611 4.0002 14.1514 4.00004H6.68195ZM11.25 8.1667H8.75001V10.4063C8.75001 10.435 8.75697 10.4485 8.76224 10.4565C8.76951 10.4675 8.78279 10.4805 8.80263 10.49C8.82247 10.4996 8.8409 10.5018 8.85405 10.5006C8.86358 10.4997 8.87847 10.4967 8.90085 10.4788C9.54346 9.96476 10.4566 9.96476 11.0992 10.4788C11.1215 10.4967 11.1364 10.4997 11.146 10.5006C11.1591 10.5018 11.1775 10.4996 11.1974 10.49C11.2172 10.4805 11.2305 10.4675 11.2378 10.4565C11.243 10.4485 11.25 10.435 11.25 10.4063V8.1667ZM7.08334 8.1667V10.4063C7.08334 11.8817 8.78995 12.7019 9.94201 11.7803C9.97592 11.7532 10.0241 11.7532 10.058 11.7803C11.2101 12.7019 12.9167 11.8817 12.9167 10.4063V8.1667H16.5741V14.8334C16.5741 15.7538 15.8279 16.5 14.9074 16.5H5.0926C4.17213 16.5 3.42594 15.7538 3.42594 14.8334V8.1667H7.08334ZM8.29704 1.98719L8.67784 2.33337H7.29785C7.3679 1.91541 7.90613 1.63182 8.29704 1.98719ZM13.5355 2.33337C13.4655 1.91541 12.9272 1.63182 12.5363 1.98719L12.1555 2.33337H13.5355Z" fill="#667185"/>
</svg>
