<svg width="20" height="15" viewBox="0 0 20 15" fill="none" xmlns="http://www.w3.org/2000/svg">
<path fill-rule="evenodd" clip-rule="evenodd" d="M10 0.166748C8.15906 0.166748 6.66668 1.65913 6.66668 3.50008C6.66668 5.34103 8.15906 6.83342 10 6.83342C11.841 6.83342 13.3333 5.34103 13.3333 3.50008C13.3333 1.65913 11.841 0.166748 10 0.166748ZM8.33334 3.50008C8.33334 2.57961 9.07954 1.83341 10 1.83341C10.9205 1.83341 11.6667 2.57961 11.6667 3.50008C11.6667 4.42056 10.9205 5.16675 10 5.16675C9.07954 5.16675 8.33334 4.42056 8.33334 3.50008Z" fill="#86B8EE"/>
<path fill-rule="evenodd" clip-rule="evenodd" d="M10 14.3334C9.05261 14.3334 7.68657 14.1095 6.64988 13.6331C6.14134 13.3994 5.5957 13.0528 5.27384 12.5342C5.10393 12.2604 4.99658 11.9377 5.00009 11.5785C5.00357 11.2227 5.11514 10.8853 5.29784 10.5762C6.13323 9.16236 7.8663 7.66675 10 7.66675C12.1337 7.66675 13.8668 9.16236 14.7022 10.5762C14.8849 10.8853 14.9964 11.2227 14.9999 11.5785C15.0034 11.9377 14.8961 12.2604 14.7262 12.5342C14.4043 13.0528 13.8587 13.3994 13.3501 13.6331C12.3134 14.1095 10.9474 14.3334 10 14.3334ZM6.73273 11.424C6.6689 11.532 6.66677 11.5857 6.66668 11.5948C6.66661 11.6008 6.6664 11.6174 6.68994 11.6553C6.75611 11.7619 6.94826 11.936 7.34583 12.1187C8.12134 12.4751 9.24071 12.6667 10 12.6667C10.7593 12.6667 11.8787 12.4751 12.6542 12.1187C13.0518 11.936 13.2439 11.7619 13.3101 11.6553C13.3336 11.6174 13.3334 11.6012 13.3333 11.5952C13.3333 11.5861 13.3311 11.532 13.2673 11.424C12.6196 10.3279 11.3529 9.33342 10 9.33342C8.64708 9.33342 7.3804 10.3279 6.73273 11.424Z" fill="#86B8EE"/>
<path fill-rule="evenodd" clip-rule="evenodd" d="M2.08334 6.00008C2.08334 4.61937 3.20263 3.50008 4.58334 3.50008C5.96406 3.50008 7.08334 4.61937 7.08334 6.00008C7.08334 7.38079 5.96406 8.50008 4.58334 8.50008C3.20263 8.50008 2.08334 7.38079 2.08334 6.00008ZM4.58334 5.16675C4.12311 5.16675 3.75001 5.53984 3.75001 6.00008C3.75001 6.46032 4.12311 6.83342 4.58334 6.83342C5.04358 6.83342 5.41668 6.46032 5.41668 6.00008C5.41668 5.53984 5.04358 5.16675 4.58334 5.16675Z" fill="#86B8EE"/>
<path d="M2.41312 12.2039C2.2085 12.6162 1.70843 12.7845 1.29618 12.5799C0.883935 12.3752 0.715616 11.8752 0.920234 11.4629C1.22639 10.8461 1.68978 10.2268 2.27272 9.75294C2.85588 9.27889 3.60315 8.91675 4.45599 8.91675C4.91623 8.91675 5.28932 9.28985 5.28932 9.75008C5.28932 10.2103 4.91623 10.5834 4.45599 10.5834C4.0885 10.5834 3.70066 10.74 3.32401 11.0462C2.94714 11.3526 2.62604 11.7749 2.41312 12.2039Z" fill="#86B8EE"/>
<path fill-rule="evenodd" clip-rule="evenodd" d="M13.1751 6.00008C13.1751 4.61937 14.2943 3.50008 15.6751 3.50008C17.0558 3.50008 18.1751 4.61937 18.1751 6.00008C18.1751 7.38079 17.0558 8.50008 15.6751 8.50008C14.2943 8.50008 13.1751 7.38079 13.1751 6.00008ZM15.6751 5.16675C15.2148 5.16675 14.8417 5.53984 14.8417 6.00008C14.8417 6.46032 15.2148 6.83342 15.6751 6.83342C16.1353 6.83342 16.5084 6.46032 16.5084 6.00008C16.5084 5.53984 16.1353 5.16675 15.6751 5.16675Z" fill="#86B8EE"/>
<path d="M19.0835 11.4629C19.2881 11.8752 19.1198 12.3752 18.7075 12.5799C18.2953 12.7845 17.7952 12.6162 17.5906 12.2039C17.3776 11.7749 17.0566 11.3526 16.6797 11.0462C16.303 10.74 15.9152 10.5834 15.5477 10.5834C15.0875 10.5834 14.7144 10.2103 14.7144 9.75008C14.7144 9.28985 15.0875 8.91675 15.5477 8.91675C16.4005 8.91675 17.1478 9.27889 17.731 9.75294C18.3139 10.2268 18.7773 10.8461 19.0835 11.4629Z" fill="#86B8EE"/>
</svg>
