<svg width="18" height="19" viewBox="0 0 18 19" fill="none" xmlns="http://www.w3.org/2000/svg">
<path fill-rule="evenodd" clip-rule="evenodd" d="M5.66663 0.833496C6.12686 0.833496 6.49996 1.20659 6.49996 1.66683V2.50016H11.5V1.66683C11.5 1.20659 11.8731 0.833496 12.3333 0.833496C12.7935 0.833496 13.1666 1.20659 13.1666 1.66683V2.50016H14C15.8409 2.50016 17.3333 3.99255 17.3333 5.8335V15.0002C17.3333 16.8411 15.8409 18.3335 14 18.3335H3.99996C2.15901 18.3335 0.666626 16.8411 0.666626 15.0002V5.8335C0.666626 3.99255 2.15901 2.50016 3.99996 2.50016H4.83329V1.66683C4.83329 1.20659 5.20639 0.833496 5.66663 0.833496ZM11.5 4.16683C11.5 4.62707 11.8731 5.00016 12.3333 5.00016C12.7935 5.00016 13.1666 4.62707 13.1666 4.16683H14C14.9204 4.16683 15.6666 4.91302 15.6666 5.8335V6.25016H2.33329V5.8335C2.33329 4.91302 3.07948 4.16683 3.99996 4.16683H4.83329C4.83329 4.62707 5.20639 5.00016 5.66663 5.00016C6.12686 5.00016 6.49996 4.62707 6.49996 4.16683H11.5ZM15.6666 7.91683H2.33329V15.0002C2.33329 15.9206 3.07948 16.6668 3.99996 16.6668H14C14.9204 16.6668 15.6666 15.9206 15.6666 15.0002V7.91683Z" fill="#667185"/>
</svg>
