<svg width="20" height="21" viewBox="0 0 20 21" fill="none" xmlns="http://www.w3.org/2000/svg">
<path d="M10.8333 2.16659C10.8333 1.70635 10.4602 1.33325 9.99998 1.33325C9.53974 1.33325 9.16664 1.70635 9.16664 2.16659V3.41659C9.16664 3.87682 9.53974 4.24992 9.99998 4.24992C10.4602 4.24992 10.8333 3.87682 10.8333 3.41659V2.16659Z" fill="black"/>
<path fill-rule="evenodd" clip-rule="evenodd" d="M4.16664 10.4999C4.16664 7.27826 6.77832 4.66659 9.99998 4.66659C13.2216 4.66659 15.8333 7.27826 15.8333 10.4999C15.8333 13.7216 13.2216 16.3333 9.99998 16.3333C6.77832 16.3333 4.16664 13.7216 4.16664 10.4999ZM9.99998 6.33325C7.69879 6.33325 5.83331 8.19873 5.83331 10.4999C5.83331 12.8011 7.69879 14.6666 9.99998 14.6666C12.3012 14.6666 14.1666 12.8011 14.1666 10.4999C14.1666 8.19873 12.3012 6.33325 9.99998 6.33325Z" fill="black"/>
<path d="M9.99998 16.3333C10.4602 16.3333 10.8333 16.7063 10.8333 17.1666V18.4166C10.8333 18.8768 10.4602 19.2499 9.99998 19.2499C9.53974 19.2499 9.16664 18.8768 9.16664 18.4166V17.1666C9.16664 16.7063 9.53974 16.3333 9.99998 16.3333Z" fill="black"/>
<path d="M15.4115 13.4166C15.6416 13.018 16.1513 12.8814 16.5499 13.1116L17.6324 13.7366C18.031 13.9667 18.1675 14.4763 17.9374 14.8749C17.7073 15.2735 17.1976 15.4101 16.7991 15.1799L15.7165 14.5549C15.318 14.3248 15.1814 13.8152 15.4115 13.4166Z" fill="black"/>
<path d="M15.7165 6.4449C15.318 6.67502 15.1814 7.18467 15.4115 7.58325C15.6416 7.98183 16.1513 8.11839 16.5499 7.88827L17.6324 7.26327C18.031 7.03315 18.1675 6.5235 17.9374 6.12492C17.7073 5.72634 17.1976 5.58978 16.7991 5.8199L15.7165 6.4449Z" fill="black"/>
<path d="M3.19985 5.61156C2.80127 5.38145 2.29161 5.51801 2.06149 5.91659C1.83137 6.31516 1.96794 6.82482 2.36651 7.05494L3.44904 7.67994C3.84762 7.91006 4.35728 7.7735 4.5874 7.37492C4.81752 6.97634 4.68096 6.46668 4.28238 6.23656L3.19985 5.61156Z" fill="black"/>
<path d="M2.06149 15.0833C1.83137 14.6847 1.96794 14.175 2.36651 13.9449L3.44904 13.3199C3.84762 13.0898 4.35728 13.2263 4.5874 13.6249C4.81752 14.0235 4.68096 14.5332 4.28238 14.7633L3.19985 15.3883C2.80127 15.6184 2.29161 15.4818 2.06149 15.0833Z" fill="black"/>
</svg>
