<svg width="20" height="21" viewBox="0 0 20 21" fill="none" xmlns="http://www.w3.org/2000/svg">
<path d="M10.8333 4.66658C10.8333 4.20635 10.4602 3.83325 10 3.83325C9.53976 3.83325 9.16667 4.20635 9.16667 4.66658V13.8333C9.16667 14.2935 9.53976 14.6666 10 14.6666C10.4602 14.6666 10.8333 14.2935 10.8333 13.8333V4.66658Z" fill="black"/>
<path fill-rule="evenodd" clip-rule="evenodd" d="M10 1.33325C8.32149 1.33325 6.96078 2.69395 6.96078 4.37246V10.4306C5.76489 11.3742 5 12.8585 5 14.5187C5 17.3342 7.21142 19.6666 10 19.6666C12.7886 19.6666 15 17.3342 15 14.5187C15 12.8585 14.2351 11.3742 13.0392 10.4306V4.37247C13.0392 2.69395 11.6785 1.33325 10 1.33325ZM6.66667 14.5187C6.66667 13.35 7.21646 12.324 8.0509 11.6944C8.38208 11.4446 8.62745 11.038 8.62745 10.5585V4.37246C8.62745 3.61443 9.24196 2.99992 10 2.99992C10.758 2.99992 11.3725 3.61443 11.3725 4.37247V10.5585C11.3725 11.038 11.6179 11.4446 11.9491 11.6944C12.7835 12.324 13.3333 13.35 13.3333 14.5187C13.3333 16.469 11.8138 17.9999 10 17.9999C8.18621 17.9999 6.66667 16.469 6.66667 14.5187Z" fill="black"/>
</svg>
