<svg width="19" height="16" viewBox="0 0 19 16" fill="none" xmlns="http://www.w3.org/2000/svg">
<path d="M6.66639 3.41667C6.66639 2.95643 6.29329 2.58333 5.83306 2.58333C5.37282 2.58333 4.99972 2.95643 4.99972 3.41667V5.08333C4.99972 5.54357 5.37282 5.91667 5.83306 5.91667C6.29329 5.91667 6.66639 5.54357 6.66639 5.08333V3.41667Z" fill="#EB5017"/>
<path d="M5.83306 6.33333C6.29329 6.33333 6.66639 6.70643 6.66639 7.16667V8.83333C6.66639 9.29357 6.29329 9.66667 5.83306 9.66667C5.37282 9.66667 4.99972 9.29357 4.99972 8.83333V7.16667C4.99972 6.70643 5.37282 6.33333 5.83306 6.33333Z" fill="#EB5017"/>
<path d="M6.66639 10.9167C6.66639 10.4564 6.29329 10.0833 5.83306 10.0833C5.37282 10.0833 4.99972 10.4564 4.99972 10.9167V12.5833C4.99972 13.0436 5.37282 13.4167 5.83306 13.4167C6.29329 13.4167 6.66639 13.0436 6.66639 12.5833V10.9167Z" fill="#EB5017"/>
<path fill-rule="evenodd" clip-rule="evenodd" d="M18.7497 12.1667L18.7497 11.9235C18.7497 11.406 18.6292 10.8956 18.3978 10.4328L17.6439 8.92496C17.3764 8.39001 17.4161 7.75275 17.7479 7.25511L18.1899 6.59206C18.5549 6.0445 18.7497 5.40115 18.7497 4.74306V3.83333C18.7497 1.99239 17.2573 0.5 15.4164 0.5H4.06144C2.06719 0.5 0.52422 2.24785 0.771574 4.2267C0.831334 4.70478 0.994573 5.16409 1.24993 5.57266L2.21493 7.11667C2.55271 7.65712 2.55271 8.34288 2.21493 8.88333L1.33973 10.2837C1.00862 10.8134 0.833056 11.4256 0.833056 12.0503L0.833056 12.1667C0.833055 14.0076 2.32544 15.5 4.16639 15.5H15.4164C17.2573 15.5 18.7497 14.0076 18.7497 12.1667ZM17.083 11.9235L17.083 12.1667C17.0831 13.0871 16.3369 13.8333 15.4164 13.8333L4.16639 13.8333C3.24591 13.8333 2.49972 13.0871 2.49972 12.1667V12.0503C2.49972 11.738 2.5875 11.4319 2.75306 11.167L3.62826 9.76666C4.30383 8.68576 4.30383 7.31424 3.62826 6.23334L2.66326 4.68933C2.53627 4.48615 2.45509 4.25773 2.42537 4.01998C2.30236 3.03588 3.06969 2.16667 4.06144 2.16667L15.4164 2.16667C16.3369 2.16667 17.083 2.91286 17.083 3.83333V4.74306C17.083 5.07211 16.9857 5.39378 16.8031 5.66756L16.3611 6.33061C15.6976 7.3259 15.6182 8.60041 16.1532 9.67031L16.9071 11.1781C17.0228 11.4096 17.083 11.6648 17.083 11.9235Z" fill="#EB5017"/>
</svg>
