<svg width="128" height="128" viewBox="0 0 128 128" fill="none" xmlns="http://www.w3.org/2000/svg">
<g clip-path="url(#clip0_190_9789)">
<path d="M91.794 78.6667H77.2045C74.8988 78.6667 73.0303 76.7982 73.0303 74.4925C73.0303 72.1867 74.8988 70.3182 77.2045 70.3182H91.794C94.0998 70.3182 95.9683 72.1867 95.9683 74.4925C95.9683 76.7985 94.0998 78.6667 91.794 78.6667Z" fill="#E65C64"/>
<path d="M53.5912 55.0547C51.2855 55.0547 49.417 53.1862 49.417 50.8805V36.291C49.417 33.9852 51.2855 32.1167 53.5912 32.1167C55.897 32.1167 57.7655 33.9852 57.7655 36.291V50.8805C57.7655 53.1862 55.897 55.0547 53.5912 55.0547Z" fill="#F26D76"/>
<path d="M60.2514 3.67319C55.3814 -1.22456 47.4229 -1.22456 42.5529 3.67319C37.6829 8.54319 37.6829 16.5019 42.5529 21.3719C44.9181 23.7374 48.0629 25.0452 51.4019 25.0452C54.7409 25.0452 57.8861 23.7372 60.2511 21.3719C65.1496 16.5022 65.1496 8.54319 60.2514 3.67319ZM54.3646 15.4522C52.6696 17.1472 50.0689 17.0792 48.4566 15.4697C46.8586 13.8717 46.8586 11.1732 48.4566 9.57519C50.0976 7.92769 52.7321 7.95269 54.3321 9.55869C56.0316 11.2502 55.9404 13.8864 54.3646 15.4522Z" fill="#FFC033"/>
<path d="M106.721 55.0555C109.026 55.0555 110.895 53.1867 110.895 50.8813C110.895 48.5759 109.026 46.707 106.721 46.707C104.416 46.707 102.547 48.5759 102.547 50.8813C102.547 53.1867 104.416 55.0555 106.721 55.0555Z" fill="#43BFBF"/>
<path d="M77.2036 25.538C79.5089 25.538 81.3778 23.6691 81.3778 21.3637C81.3778 19.0583 79.5089 17.1895 77.2036 17.1895C74.8982 17.1895 73.0293 19.0583 73.0293 21.3637C73.0293 23.6691 74.8982 25.538 77.2036 25.538Z" fill="#36D9D9"/>
<path d="M106.721 102.28C109.026 102.28 110.895 100.411 110.895 98.106C110.895 95.8006 109.026 93.9318 106.721 93.9318C104.416 93.9318 102.547 95.8006 102.547 98.106C102.547 100.411 104.416 102.28 106.721 102.28Z" fill="#43BFBF"/>
<path d="M29.9799 25.538C32.2853 25.538 34.1542 23.6691 34.1542 21.3637C34.1542 19.0583 32.2853 17.1895 29.9799 17.1895C27.6745 17.1895 25.8057 19.0583 25.8057 21.3637C25.8057 23.6691 27.6745 25.538 29.9799 25.538Z" fill="#36D9D9"/>
<path d="M110.896 13.0147C108.59 13.0147 106.722 11.1462 106.722 8.84044V4.66619C106.722 2.36044 108.59 0.491943 110.896 0.491943C113.202 0.491943 115.07 2.36044 115.07 4.66619V8.84044C115.07 11.1462 113.202 13.0147 110.896 13.0147Z" fill="#FFC033"/>
<path d="M110.896 33.886C108.59 33.886 106.722 32.0175 106.722 29.7118V25.5375C106.722 23.2318 108.59 21.3633 110.896 21.3633C113.202 21.3633 115.07 23.2318 115.07 25.5375V29.7118C115.07 32.0175 113.202 33.886 110.896 33.886Z" fill="#F9A926"/>
<path d="M102.548 21.3633H98.3735C96.0677 21.3633 94.1992 19.4948 94.1992 17.189C94.1992 14.8833 96.0677 13.0148 98.3735 13.0148H102.548C104.853 13.0148 106.722 14.8833 106.722 17.189C106.722 19.4948 104.854 21.3633 102.548 21.3633Z" fill="#FFC033"/>
<path d="M123.419 21.3633H119.245C116.939 21.3633 115.07 19.4948 115.07 17.189C115.07 14.8833 116.939 13.0148 119.245 13.0148H123.419C125.723 13.0148 127.593 14.8833 127.593 17.189C127.593 19.4948 125.723 21.3633 123.419 21.3633Z" fill="#F9A926"/>
<path d="M124.256 64.8957C119.386 59.998 111.428 59.998 106.558 64.8957C101.688 69.7657 101.688 77.7245 106.558 82.5945C108.923 84.96 112.068 86.2677 115.407 86.2677C118.746 86.2677 121.891 84.9597 124.256 82.5945C129.154 77.7245 129.154 69.7655 124.256 64.8957ZM118.37 76.6732C116.682 78.364 114.082 78.3095 112.462 76.6922C110.864 75.0942 110.864 72.3957 112.462 70.7977C114.103 69.1502 116.737 69.1752 118.337 70.7812C120.03 72.4677 119.953 75.1002 118.37 76.6732Z" fill="#F9A926"/>
<path d="M67.1282 65.1317C66.0602 65.1317 64.9922 64.724 64.177 63.9087C62.5465 62.2797 62.5465 59.6355 64.177 58.006L90.235 31.948C91.8655 30.3175 94.5072 30.3175 96.1377 31.948C97.7682 33.577 97.7682 36.2212 96.1377 37.8507L70.0797 63.9085C69.2642 64.724 68.1962 65.1317 67.1282 65.1317Z" fill="#FFC033"/>
<path d="M64.1768 63.9085C64.992 64.7238 66.0603 65.1315 67.128 65.1315C68.1958 65.1315 69.264 64.7238 70.0793 63.9085L96.1373 37.8505C97.7678 36.2215 97.7678 33.5773 96.1373 31.9478L64.1768 63.9085Z" fill="#F9A926"/>
<path d="M32.4793 106.519V118.304L5.63882 127.754C3.98857 128.336 2.37182 127.835 1.30882 126.778C0.237324 125.712 -0.268926 124.087 0.315324 122.428L9.77707 95.618H21.5901L27.0248 101.059L32.4793 106.519Z" fill="#F26D76"/>
<path d="M32.4801 106.518V118.304L5.63957 127.754C3.98932 128.336 2.37257 127.835 1.30957 126.777L27.0258 101.058L32.4801 106.518Z" fill="#E65C64"/>
<path d="M20.5684 79.8413L48.2731 107.557H62.9556L78.5906 102.047C80.7671 101.265 81.9014 98.9005 81.1506 96.7035L31.3661 46.9465C29.2011 46.1693 26.8034 47.305 26.0509 49.479L20.5684 65.012V79.8415V79.8413Z" fill="#F26D76"/>
<path d="M48.2728 107.557H62.9553L78.5903 102.047C80.7668 101.265 81.9011 98.9006 81.1503 96.7036L56.2591 71.8258L34.4033 93.6816L48.2728 107.557Z" fill="#E65C64"/>
<path d="M20.5405 65.0625L9.77148 95.6182L32.4792 118.298L32.5627 118.27L63.0067 107.529L20.5405 65.0625Z" fill="#FFC033"/>
<path d="M32.4792 118.298L32.5627 118.27L63.0065 107.529L41.7817 86.3037L21.126 106.959L32.4792 118.298Z" fill="#F9A926"/>
<path d="M83.1092 108.184C82.0412 108.184 80.9732 107.776 80.158 106.961L21.1242 47.928C19.4937 46.299 19.4937 43.6547 21.1242 42.0252C22.7547 40.3947 25.3965 40.3947 27.027 42.0252L86.0602 101.058C87.6907 102.687 87.6907 105.332 86.0602 106.961C85.245 107.776 84.1772 108.184 83.1092 108.184Z" fill="#36D9D9"/>
<path d="M80.1574 106.961C80.9726 107.776 82.0409 108.184 83.1086 108.184C84.1764 108.184 85.2446 107.776 86.0599 106.961C87.6904 105.332 87.6904 102.688 86.0599 101.058L56.5434 71.542L50.6406 77.4447L80.1574 106.961Z" fill="#43BFBF"/>
</g>
<defs>
<clipPath id="clip0_190_9789">
<rect width="128" height="128" fill="white"/>
</clipPath>
</defs>
</svg>
